# xmcd
#
# Track frame offsets:
#	183
#	13598
#	24308
#	39320
#	54125
#	66223
#	79118
#	91648
#	104130
#	117065
#	130033
#	142635
#	152580
#	165545
#	179440
#	191593
#	204818
#	218498
#	230460
#	244123
#	258010
#	269320
#	281915
#	294880
#
# Disc length: 4117 seconds
#
# Revision: 2
# Processed by: cddbd v1.5.1PL0 Copyright (c) Steve Scherf et al.
# Submitted via: audiograbber 1.83.01
#
DISCID=32101318
DTITLE=Various Artist - Willie Dixon's Blues Dixonary (Vol 1)
DYEAR=1900
DGENRE=Blues
TTITLE0=Muddy Waters - Walking Blues
TTITLE1=Big Three Trio - Violent Love
TTITLE2=Willie Dixon - Pain In My Heart
TTITLE3=Eddie Boyd - Third Degree
TTITLE4=Little Walter - Too Late
TTITLE5=Willie Dixon - Crazy For My Baby
TTITLE6=Muddy Waters - I'm Your Hoochie Coochie Man
TTITLE7=Little Walter - Oh Baby
TTITLE8=Muddy Waters - I Just Want To Make Love To You
TTITLE9=Howlin' Wolf - Evil (Is Going On)
TTITLE10=Jimmy Witherspoon - Live So Easy
TTITLE11=Jimmy Witherspoon - I Can t Make It With You
TTITLE12=Jimmy Witherspoon - When The Lights Go Out
TTITLE13=Muddy Waters - I'm Ready
TTITLE14=Little Walter - Mellow Down Easy
TTITLE15=Lowell Fulson - Do Me Right
TTITLE16=Lowell Fulson - Loving You
TTITLE17=Little Walter - My Babe
TTITLE18=Muddy Waters - Young Fashioned Ways
TTITLE19=Willie Dixon - Walking The Blues
TTITLE20=Bo Diddley - Diddy Wah Diddy
TTITLE21=Bo Diddley - Pretty Thing
TTITLE22=Willie Mabon - Seventh Son
TTITLE23=Lowell Fulson - Tollin'  Bells
EXTD=
EXTT0=
EXTT1=
EXTT2=
EXTT3=
EXTT4=
EXTT5=
EXTT6=
EXTT7=
EXTT8=
EXTT9=
EXTT10=
EXTT11=
EXTT12=
EXTT13=
EXTT14=
EXTT15=
EXTT16=
EXTT17=
EXTT18=
EXTT19=
EXTT20=
EXTT21=
EXTT22=
EXTT23=
PLAYORDER=
